<svg width="44" height="31" viewBox="0 0 44 31" fill="none" xmlns="http://www.w3.org/2000/svg">
<path d="M43.5617 6.68897C43.5617 6.68897 43.132 3.6501 41.8086 2.31575C40.1328 0.559567 38.2594 0.550958 37.4 0.447653C31.2469 -2.46297e-07 22.0086 0 22.0086 0H21.9914C21.9914 0 12.7531 -2.46297e-07 6.6 0.447653C5.74063 0.550958 3.86719 0.559567 2.19141 2.31575C0.867969 3.6501 0.446875 6.68897 0.446875 6.68897C0.446875 6.68897 0 10.2616 0 13.8256V17.1658C0 20.7298 0.438281 24.3024 0.438281 24.3024C0.438281 24.3024 0.867969 27.3413 2.18281 28.6756C3.85859 30.4318 6.05859 30.3716 7.03828 30.561C10.5617 30.8967 22 31 22 31C22 31 31.2469 30.9828 37.4 30.5437C38.2594 30.4404 40.1328 30.4318 41.8086 28.6756C43.132 27.3413 43.5617 24.3024 43.5617 24.3024C43.5617 24.3024 44 20.7384 44 17.1658V13.8256C44 10.2616 43.5617 6.68897 43.5617 6.68897ZM17.4539 21.2205V8.83255L29.3391 15.048L17.4539 21.2205Z" fill="white"/>
</svg>
